<svg fill="#000000" version="1.1" id="Capa_1" xmlns="http://www.w3.org/2000/svg"
    xmlns:xlink="http://www.w3.org/1999/xlink" viewBox="0 0 385.812 385.812" xml:space="preserve">
    <g id="SVGRepo_bgCarrier" stroke-width="0"></g>
    <g id="SVGRepo_tracerCarrier" stroke-linecap="round" stroke-linejoin="round"></g>
    <g id="SVGRepo_iconCarrier"> 
        <g> 
            <g> 
                <path d="M340.896,137.197c-49.686-25.217-129.596-41.962-199.958-41.962C38.03,95.235,0,133.854,0,181.491 c0,47.639,38.029,86.256,140.938,86.256c74.452,0,160.192-20.188,205.663-45.639c23.142-12.953,39.21-27.641,39.21-41.058 C385.812,168.123,368.279,151.094,340.896,137.197z"></path> 
                <path d="M311.39,116.003c21.771,7.084,22.888,7.911,36.831,15.249c3.427,1.804,6.566,4.299,8.597,3.928 c2.123-0.389,2.854-5.461,2.854-5.461l9.876-41.902c1.443-4.537-1.304-8.305-6.104-8.374l-13.963-0.197 c-4.8-0.069-11.047,2.979-13.877,6.772l-23.144,25.222C312.463,111.238,307.834,114.846,311.39,116.003z"></path> 
                <path d="M360.946,233.879c0,0-0.731-5.072-2.854-5.461c-2.028-0.372-5.171,2.124-8.598,3.927 c-13.943,7.338-15.059,8.165-36.831,15.249c-3.555,1.157,1.074,4.765,1.074,4.765l23.142,25.222 c2.83,3.792,9.077,6.842,13.878,6.772l13.963-0.197c4.8-0.068,7.548-3.837,6.104-8.375L360.946,233.879z"></path> 
            </g> 
        </g> 
    </g>
</svg>